<?xml version="1.0" standalone="no"?>
<!DOCTYPE svg PUBLIC "-//W3C//DTD SVG 20010904//EN"
 "http://www.w3.org/TR/2001/REC-SVG-20010904/DTD/svg10.dtd">
<svg version="1.0" xmlns="http://www.w3.org/2000/svg"
 width="574.000000pt" height="574.000000pt" viewBox="0 0 574.000000 574.000000"
 preserveAspectRatio="xMidYMid meet">
<metadata>
Created by potrace 1.11, written by Peter Selinger 2001-2013
</metadata>
<g transform="translate(0.000000,574.000000) scale(0.100000,-0.100000)"
fill="#000000" stroke="none">
<path d="M1330 4845 c-226 -38 -392 -129 -502 -275 -87 -116 -147 -317 -152
-510 l-1 -45 65 -7 c223 -23 356 -115 413 -289 20 -60 28 -112 32 -228 7 -165
42 -267 121 -351 44 -47 140 -104 197 -116 12 -3 42 -9 67 -14 26 -5 576 -9
1310 -9 1388 0 1340 -2 1466 60 102 49 191 163 209 268 3 19 8 37 10 41 2 4 7
57 10 118 6 121 16 184 39 248 55 155 198 254 389 271 40 3 75 10 78 15 9 15
-4 157 -26 273 -7 37 -31 106 -57 165 -68 150 -198 266 -373 333 -170 65 -59
61 -1715 63 -1182 2 -1521 -1 -1580 -11z"/>
<path d="M629 3846 c-2 -2 -26 -7 -52 -10 -221 -30 -367 -215 -402 -511 -8
-75 -9 -1137 0 -1231 26 -287 78 -471 170 -600 56 -78 93 -109 175 -148 54
-25 79 -30 150 -32 164 -5 283 63 326 187 18 52 19 99 19 1084 l0 1030 -26 56
c-42 89 -113 147 -204 164 -45 9 -151 16 -156 11z"/>
<path d="M4977 3834 c-127 -30 -193 -96 -222 -219 -9 -37 -12 -314 -11 -1055
2 -942 3 -1008 20 -1057 23 -65 72 -123 127 -150 62 -30 84 -35 174 -39 264
-10 441 205 500 606 25 169 26 227 26 810 0 611 -3 656 -51 796 -55 160 -174
270 -327 305 -75 16 -173 18 -236 3z"/>
<path d="M1500 2829 c-208 -14 -303 -108 -313 -309 -11 -205 79 -331 257 -358
28 -4 688 -7 1466 -6 1325 1 1418 2 1465 18 138 49 206 163 199 336 -4 128
-38 204 -116 260 -90 66 -12 62 -1507 64 -746 0 -1399 -2 -1451 -5z"/>
<path d="M1435 1979 c-131 -25 -212 -102 -238 -225 -26 -126 -6 -251 53 -333
27 -37 96 -81 154 -99 38 -12 2876 -13 2932 -2 56 12 117 41 152 74 58 52 91
161 86 278 -7 147 -66 241 -181 289 l-58 24 -1430 1 c-786 1 -1448 -2 -1470
-7z"/>
</g>
</svg>
