<?xml version="1.0" standalone="no"?>
<!DOCTYPE svg PUBLIC "-//W3C//DTD SVG 20010904//EN"
 "http://www.w3.org/TR/2001/REC-SVG-20010904/DTD/svg10.dtd">
<svg version="1.0" xmlns="http://www.w3.org/2000/svg"
 width="288.000000pt" height="288.000000pt" viewBox="0 0 288.000000 288.000000"
 preserveAspectRatio="xMidYMid meet">
<metadata>
Created by potrace 1.11, written by Peter Selinger 2001-2013
</metadata>
<g transform="translate(0.000000,288.000000) scale(0.100000,-0.100000)"
fill="#000000" stroke="none">
<path d="M660 2433 c-177 -31 -293 -144 -316 -308 -6 -41 -12 -105 -10 -105 0
-1 19 -3 41 -6 54 -8 128 -41 154 -68 32 -34 58 -113 60 -185 3 -76 24 -146
55 -180 21 -24 87 -58 129 -67 33 -7 1287 -7 1326 1 119 21 175 100 186 257 2
35 8 78 14 95 26 86 102 139 211 147 24 2 25 5 23 62 -6 140 -77 259 -187 313
-99 47 -67 46 -886 47 -426 1 -786 0 -800 -3z"/>
<path d="M251 1918 c-80 -22 -139 -102 -161 -213 -8 -42 -10 -161 -7 -395 3
-184 7 -344 10 -355 32 -149 86 -240 162 -275 101 -46 221 -4 241 84 9 39 12
1036 3 1056 -27 60 -37 72 -74 90 -45 22 -116 25 -174 8z"/>
<path d="M2460 1919 c-38 -15 -68 -48 -81 -88 -17 -51 -19 -1011 -2 -1063 16
-50 50 -86 92 -98 80 -22 144 -6 204 52 43 41 64 82 90 173 18 62 21 109 24
415 5 364 0 429 -39 498 -30 56 -48 73 -103 98 -54 25 -139 31 -185 13z"/>
<path d="M683 1409 c-64 -28 -96 -80 -94 -154 2 -80 25 -125 78 -151 36 -18
75 -19 773 -19 l735 0 36 23 c20 12 44 38 54 57 18 40 22 123 7 151 -6 11 -11
22 -11 26 -5 26 -18 40 -59 59 l-46 23 -718 0 c-640 1 -722 -1 -755 -15z"/>
<path d="M671 978 c-56 -29 -81 -74 -81 -146 0 -65 22 -115 64 -145 l31 -22
735 -3 c550 -2 742 0 765 9 66 27 97 76 96 155 0 69 -21 115 -62 145 l-34 24
-735 3 -735 3 -44 -23z"/>
</g>
</svg>
