<svg xmlns="http://www.w3.org/2000/svg" viewBox="0 0 187 48"><style>.a{fill:#444;}.b{fill:#777;}</style><path d="M83.5 14.9c-5 0-7.4 3.4-7.4 8.6 0 5 2.4 8.6 7.4 8.6s7.3-3.5 7.3-8.6C90.8 18.3 88.5 14.9 83.5 14.9zM83.5 29.8c-3.3 0-4.3-2.6-4.3-6.3 0-4 1.1-6.3 4.3-6.3 3.2 0 4.3 2.3 4.3 6.3C87.8 27.2 86.7 29.8 83.5 29.8z" class="a"/><path d="M108.7 15.1h-3v13.2c-0.4 0.3-0.8 0.5-1.3 0.8 -0.8 0.4-2 0.8-3.3 0.8 -2.4 0-3.1-1.5-3.1-5.2v-9.5h-3v9.6c0 5.1 1.7 7.4 5.4 7.4 1.8 0 3.3-0.5 4.2-1.1 0.6-0.3 1.1-0.7 1.5-1.1l0.4 2.1 2.2-0.2L108.7 15.1 108.7 15.1z" class="a"/><path d="M112.9 23.6c0 6.3 3.6 8.5 7.1 8.5 1.4 0 2.5-0.2 3.4-0.4 0.5-0.1 0.9-0.3 1.3-0.4L125 29c-0.4 0.1-0.9 0.3-1.4 0.4 -0.8 0.2-2 0.4-3.2 0.4 -2.9 0-4.5-1.9-4.5-6.2 0-4.5 1.6-6.4 4.5-6.4 1.2 0 2.4 0.2 3.2 0.4 0.5 0.1 0.9 0.3 1.4 0.4l-0.2-2.2c-0.4-0.2-0.8-0.3-1.3-0.4 -0.8-0.2-2-0.4-3.4-0.4C116.5 14.9 112.9 16.9 112.9 23.6z" class="a"/><path d="M128.9 32.1h3V19.2c0.8-0.3 2.8-1.7 4.8-1.7 2 0 3 1.1 3 5.5v9.1h3v-9.3c0-5.4-1.5-7.5-5.2-7.5 -2.2 0-3.8 0.5-5.6 1.9V8.8l-3 0.3V32.1z" class="a"/><path d="M162.2 10.7c-2.1-1.6-4.6-1.9-7.4-1.9h-6.7v23.2h7.4c8.1 0 10-4.8 10-12.1C165.5 14.9 164.2 12.3 162.2 10.7zM154.5 29.8h-3.3V11.2h4.4c5.4 0 6.9 2.9 6.9 8.9C162.5 27.6 160.8 29.8 154.5 29.8z" class="a"/><path d="M183.6 20.3c-0.8-0.4-1.7-0.7-2.6-0.8 1.2-0.1 4.1-1.2 4.1-4.7 0-4.4-2.2-6.1-8.2-6.1h-6.4V32h7.6c5.4 0 8.1-2.1 8.1-6.7C186.2 22.5 184.9 21.1 183.6 20.3zM173.4 11.2h3.1c4.1 0 5.7 0.7 5.7 3.6 0 2.5-1.3 3.9-5 3.9h-3.8V11.2zM177.3 29.8h-3.9v-9h3.9c4.1 0 6 1 6 4.6C183.3 29.1 181.3 29.8 177.3 29.8z" class="a"/><path d="M66.3 32.1c1.9 0 3.5-0.3 4.6-0.5 0.7-0.2 1.2-0.4 1.8-0.5l0.3-2.5c-0.6 0.2-1.2 0.4-1.8 0.6 -1.2 0.3-2.7 0.6-4.5 0.6 -4.3 0-6.4-2.8-6.4-9.7 0-7.2 2.5-9.5 6.7-9.5 1.7 0 3.2 0.3 4.3 0.5 0.7 0.1 1.2 0.4 1.8 0.5L72.8 9c-0.5-0.2-1.1-0.3-1.7-0.5C69.9 8.3 68.4 8 66.6 8c-5.5 0-9.6 2.9-9.6 11.9 0 4.6 1 7.8 2.7 9.6C61.4 31.4 63.7 32.1 66.3 32.1z" class="a"/><path d="M152.2 38.1c-0.9 0-1.8 0.4-2.5 1.2l-0.3-1.2 -1.2 0.1v9.5h1.7v-7.4c0.2-0.2 0.4-0.3 0.7-0.4 0.4-0.2 1-0.4 1.7-0.4 0.3 0 0.5 0 0.6 0l0.1 0 0.2-1.3c-0.1 0-0.2-0.1-0.3-0.1C152.7 38.1 152.4 38.1 152.2 38.1z" class="b"/><path d="M162.1 41.4c0-1.7-1.2-3.3-3.5-3.3 -2.3 0-4.1 1.5-4.1 5 0 3.2 1.5 4.8 4.5 4.8 0.8 0 1.4-0.1 1.8-0.2 0.3 0 0.5-0.1 0.8-0.2l0.2-1.2c-0.3 0.1-0.5 0.1-0.8 0.2 -0.5 0.1-1.2 0.2-1.8 0.2 -1.7 0-2.9-0.8-2.9-3.1v-0.3h5.7c0-0.1 0-0.4 0.1-0.8C162 42.1 162.1 41.6 162.1 41.4zM160.6 41.8c0 0 0 0.1 0 0.2h-4.4c0.1-1.1 0.4-1.7 0.8-2.2 0.4-0.4 1-0.6 1.6-0.6 1.1 0 2 0.7 2 2.2C160.6 41.7 160.6 41.8 160.6 41.8z" class="b"/><polygon points="164.4 47.9 166.1 47.9 166.1 34.6 164.4 34.8 " class="b"/><path d="M176.1 46.7c-0.2 0-0.2-0.3-0.2-0.8v-3.7c0-3-0.7-4.1-3.7-4.1 -0.9 0-1.7 0.1-2.2 0.3 -0.3 0.1-0.6 0.2-0.8 0.3L169 40c0.3-0.1 0.6-0.2 0.9-0.3 0.6-0.1 1.3-0.3 2.1-0.3 1.6 0 2.1 0.3 2.1 2.3v1l-0.5-0.1c-0.3 0-0.8 0-1.2 0 -2.1 0-4.2 0.5-4.2 2.7 0 1.7 1.1 2.7 2.8 2.7 1.2 0 2-0.3 2.5-0.6 0.3-0.2 0.5-0.4 0.7-0.6 0 0.1 0.1 0.5 0.3 0.8 0.2 0.3 0.6 0.4 1.1 0.4 0.3 0 0.5 0 0.8-0.1l0.3-0.1 0.1-1.1C176.6 46.7 176.2 46.7 176.1 46.7zM174.2 46c-0.2 0.2-0.4 0.3-0.7 0.4 -0.4 0.2-1.1 0.4-1.9 0.4 -1.1 0-1.7-0.4-1.7-1.4 0-1.6 1.9-1.7 2.9-1.7l0.9 0 0.4 0L174.2 46 174.2 46z" class="b"/><polygon points="178 47.9 179.9 47.9 182.1 44.2 184.3 47.9 186.2 47.9 183 43.1 186.2 38.4 184.4 38.4 182.1 42.2 179.8 38.4 178 38.4 181.1 43.1 " class="b"/><path d="M39.7 21.4c0 2-1.1 3-3.1 3.1l0 0H12.2l0 0c-2 0-3.1-1-3.1-3.1 0-2 1.1-3 3.1-3.1l0 0h24.5l0 0C38.7 18.4 39.7 19.4 39.7 21.4zM36.7 26L36.7 26H12.2l0 0c-2 0-3.1 1-3.1 3.1 0 2 1.1 3 3.1 3.1l0 0h24.5l0 0c2 0 3.1-1 3.1-3.1C39.7 27 38.7 26 36.7 26zM44.3 9.1L44.3 9.1c-2 0-3.1 1-3.1 3V29c0 2 1.1 3 3.1 3.1l0 0c3-0.1 4.6-3.1 4.6-9.2v-7.6C48.9 11.2 47.3 9.2 44.3 9.1zM4.6 9.1L4.6 9.1C1.6 9.2 0 11.2 0 15.3v7.6c0 6.1 1.6 9.1 4.6 9.2l0 0c2 0 3.1-1 3.1-3.1V12.2C7.6 10.2 6.6 9.2 4.6 9.1zM44.3 7.6c0-5.1-2.7-7.5-7.6-7.6l0 0H12.2l0 0c-5 0.1-7.6 2.6-7.6 7.6l0 0c3 0 4.6 1.6 4.6 4.6s1.6 4.6 4.6 4.6l0 0h21.4l0 0c3 0 4.6-1.6 4.6-4.6C39.7 9.1 41.4 7.7 44.3 7.6L44.3 7.6z" fill="#E42528"/></svg>
