<?xml version="1.0" encoding="utf-8"?>
<!-- Generator: Adobe Illustrator 19.0.0, SVG Export Plug-In . SVG Version: 6.00 Build 0)  -->
<svg version="1.1" id="Layer_1" xmlns="http://www.w3.org/2000/svg" xmlns:xlink="http://www.w3.org/1999/xlink" x="0px" y="0px"
	 viewBox="0 0 841.9 595.3" enable-background="new 0 0 841.9 595.3" xml:space="preserve">
<g id="XMLID_2_">
	<g id="XMLID_12_">
		<g id="XMLID_64_">
			<path id="XMLID_69_" fill="#444444" d="M378.6,315.2"/>
			<path id="XMLID_66_" fill="#444444" d="M398.9,277.3c-11.2,0-16.5,7.6-16.5,19.3c0,11.3,5.3,19.2,16.5,19.2
				c11.2,0,16.4-7.8,16.4-19.2C415.3,284.9,410.1,277.3,398.9,277.3z M398.9,310.8c-7.3,0-9.7-5.8-9.7-14.2c0-9,2.4-14.1,9.7-14.1
				c7.1,0,9.7,5.1,9.7,14.1C408.6,304.9,406.1,310.8,398.9,310.8z"/>
			<path id="XMLID_65_" fill="#444444" d="M419.2,315.2"/>
		</g>
		<g id="XMLID_60_">
			<path id="XMLID_63_" fill="#444444" d="M419.2,315.2"/>
			<path id="XMLID_62_" fill="#444444" d="M455.4,277.8h-6.7v29.5c-0.8,0.7-1.8,1.2-2.9,1.7c-1.9,0.9-4.4,1.7-7.5,1.7
				c-5.4,0-7-3.3-7-11.7v-21.3h-6.7v21.5c0,11.4,3.7,16.5,12.2,16.5c4.1,0,7.3-1.2,9.5-2.5c1.3-0.7,2.4-1.6,3.4-2.5l0.9,4.7l4.9-0.4
				V277.8z"/>
			<path id="XMLID_61_" fill="#444444" d="M461.1,315.2"/>
		</g>
		<g id="XMLID_56_">
			<path id="XMLID_59_" fill="#444444" d="M461.1,315.2"/>
			<path id="XMLID_58_" fill="#444444" d="M464.9,296.8c0,14.2,8.1,19.1,16,19c3.1,0,5.7-0.5,7.6-1c1.1-0.3,2.1-0.6,2.9-1l0.6-4.8
				c-0.9,0.3-2,0.6-3.1,0.9c-1.9,0.4-4.5,0.8-7.2,0.9c-6.5,0.1-10-4.3-10-14c0-10.1,3.5-14.3,10-14.3c2.8,0,5.3,0.5,7.2,0.9
				c1.1,0.3,2.1,0.6,3.1,0.9l-0.5-4.9c-0.9-0.4-1.9-0.7-3-1c-1.9-0.5-4.5-1-7.7-1C473,277.3,464.9,281.8,464.9,296.8z"/>
			<path id="XMLID_57_" fill="#444444" d="M495,315.8"/>
		</g>
		<g id="XMLID_52_">
			<path id="XMLID_55_" fill="#444444" d="M495,315.8"/>
			<path id="XMLID_54_" fill="#444444" d="M500.8,315.8h6.7V287c1.7-0.6,6.3-3.9,10.8-3.9c4.4,0,6.7,2.5,6.7,12.3v20.4h6.7v-20.9
				c0-12.2-3.3-16.9-11.7-16.9c-4.9,0-8.6,1.2-12.5,4.3v-18.6l-6.7,0.7V315.8z"/>
			<path id="XMLID_53_" fill="#444444" d="M537.2,315.8"/>
		</g>
		<g id="XMLID_46_">
			<path id="XMLID_51_" fill="#444444" d="M537.2,315.8"/>
			<path id="XMLID_48_" fill="#444444" d="M575.4,267.9c-4.6-3.5-10.4-4.2-16.6-4.2h-15v52.1h16.6c18.1,0,22.5-10.7,22.5-27.1
				C582.9,277.3,579.9,271.4,575.4,267.9z M558.2,310.6h-7.3v-41.7h9.9c12,0,15.4,6.5,15.4,20C576.1,305.7,572.3,310.6,558.2,310.6z
				"/>
			<path id="XMLID_47_" fill="#444444" d="M587.3,315.8"/>
		</g>
		<g id="XMLID_40_">
			<path id="XMLID_45_" fill="#444444" d="M587.3,315.8"/>
			<path id="XMLID_41_" fill="#444444" d="M623.3,289.5c-1.7-1-3.7-1.5-5.9-1.7c2.8-0.3,9.3-2.8,9.3-10.5c0-9.9-4.9-13.7-18.4-13.7
				H594v52.1h17.1c12.1,0,18.1-4.6,18.1-15.1C629.2,294.3,626.2,291.2,623.3,289.5z M600.6,268.9h6.9c9.1,0,12.8,1.5,12.8,8.1
				c0,5.7-2.9,8.8-11.2,8.8h-8.5V268.9z M609.3,310.6h-8.8v-20.1h8.7c9.3,0,13.5,2.2,13.5,10.2C622.7,309.1,618.2,310.6,609.3,310.6
				z"/>
		</g>
		<g id="XMLID_37_">
			<path id="XMLID_39_" fill="#444444" d="M335.3,315"/>
			<path id="XMLID_38_" fill="#444444" d="M360.4,315.8c4.2,0,7.8-0.6,10.4-1.2c1.5-0.4,2.8-0.8,4-1.2l0.6-5.7
				c-1.3,0.5-2.7,0.9-4.1,1.3c-2.6,0.7-6.1,1.3-10.1,1.3c-9.7,0.1-14.4-6.2-14.4-21.8c-0.1-16.1,5.7-21.2,15.1-21.2
				c3.7,0,7.1,0.6,9.6,1.1c1.5,0.3,2.8,0.8,4,1.2l-0.6-5.6c-1.2-0.4-2.5-0.7-3.9-1.1c-2.5-0.5-5.9-1.1-9.8-1.1
				c-12.4,0-21.5,6.6-21.5,26.7c0,10.4,2.3,17.4,6.1,21.6C349.4,314.4,354.5,315.8,360.4,315.8z"/>
		</g>
		<path id="XMLID_36_" fill="#444444" d="M378.6,315"/>
		<g id="XMLID_13_">
			<g id="XMLID_33_">
				<path id="XMLID_35_" fill="#777777" d="M553,329.3c-2.1,0-4.1,0.9-5.7,2.6l-0.7-2.6l-2.7,0.2v21.3h3.8v-16.5
					c0.5-0.4,1-0.7,1.5-0.9c1-0.5,2.3-1,3.9-1c0.7,0,1.1,0.1,1.3,0.1l0.3,0.1l0.5-3c-0.2-0.1-0.4-0.2-0.7-0.2
					C554,329.4,553.5,329.3,553,329.3z"/>
				<path id="XMLID_34_" fill="#777777" d="M555.8,350.8"/>
			</g>
			<g id="XMLID_27_">
				<path id="XMLID_32_" fill="#777777" d="M555.8,350.8"/>
				<path id="XMLID_29_" fill="#777777" d="M575.1,336.6c-0.1-3.8-2.7-7.4-7.9-7.3c-5.2,0-9.2,3.3-9.2,11.2c0,7.1,3.4,10.7,10,10.7
					c1.7,0,3.1-0.2,4.1-0.5c0.6-0.1,1.2-0.3,1.7-0.5l0.4-2.8c-0.6,0.2-1.2,0.3-1.8,0.4c-1.1,0.2-2.6,0.4-4.1,0.4
					c-3.8,0-6.4-1.8-6.4-7v-0.7h12.8c0.1-0.3,0.1-0.9,0.2-1.7C575,338.2,575.1,337.2,575.1,336.6z M571.8,337.7c0,0.1,0,0.3,0,0.5
					H562c0.2-2.5,0.8-3.9,1.8-4.9c1-0.9,2.2-1.3,3.5-1.3c2.5,0,4.4,1.5,4.5,5C571.8,337.3,571.8,337.5,571.8,337.7z"/>
				<path id="XMLID_28_" fill="#777777" d="M577.1,351.2"/>
			</g>
			<g id="XMLID_23_">
				<path id="XMLID_26_" fill="#777777" d="M577.1,351.2"/>
				<polygon id="XMLID_25_" fill="#777777" points="580.3,351.2 584.1,351.2 584.1,321.5 580.3,321.9 				"/>
				<path id="XMLID_24_" fill="#777777" d="M587.4,351.2"/>
			</g>
			<g id="XMLID_17_">
				<path id="XMLID_22_" fill="#777777" d="M587.4,351.2"/>
				<path id="XMLID_19_" fill="#777777" d="M606.5,348.6c-0.4-0.1-0.5-0.7-0.5-1.7v-8.4c0-6.7-1.6-9.1-8.3-9.1
					c-2.1,0-3.7,0.3-4.9,0.7c-0.7,0.2-1.3,0.4-1.8,0.6l-0.4,2.9c0.7-0.2,1.4-0.5,2.1-0.6c1.3-0.3,2.9-0.6,4.6-0.6
					c3.5,0,4.8,0.7,4.8,5.1v2.3l-1.1-0.2c-0.7-0.1-1.7-0.1-2.6-0.1c-4.8,0-9.5,1.1-9.5,6c0,3.7,2.5,6.1,6.3,6c2.7,0,4.5-0.7,5.7-1.4
					c0.7-0.4,1.2-0.9,1.5-1.4c0,0.3,0.2,1.2,0.7,1.8c0.5,0.6,1.3,1,2.4,1c0.7,0,1.2-0.1,1.7-0.2l0.7-0.2l0.3-2.5
					C607.7,348.6,606.9,348.7,606.5,348.6z M602.3,347c-0.5,0.4-1,0.6-1.6,0.9c-1,0.5-2.5,0.9-4.2,0.9c-2.5,0-3.9-1-3.9-3.1
					c0-3.6,4.2-3.9,6.6-3.8l2.1,0.1l1,0.1V347z"/>
				<path id="XMLID_18_" fill="#777777" d="M609.7,351.2"/>
			</g>
			<g id="XMLID_14_">
				<path id="XMLID_16_" fill="#777777" d="M609.7,351.2"/>
				<polygon id="XMLID_15_" fill="#777777" points="610.8,351.2 615,351.2 620,342.9 624.9,351.2 629.2,351.2 622.1,340.6 
					629.2,329.9 625.1,329.9 620,338.4 614.8,329.9 610.8,329.9 617.8,340.6 				"/>
			</g>
		</g>
	</g>
	<g id="XMLID_3_">
		<g id="XMLID_5_">
			<path id="XMLID_6_" fill="#E42528" d="M300.9,291.8c0,4.5-2.4,6.8-6.9,6.9v0h-54.9v0c-4.5-0.1-6.9-2.3-6.9-6.9
				c0-4.5,2.4-6.8,6.9-6.9v0h54.9v0C298.5,285.1,300.9,287.3,300.9,291.8z M294.1,302.1L294.1,302.1l-54.9,0v0
				c-4.5,0.1-6.9,2.3-6.9,6.9c0,4.5,2.4,6.8,6.9,6.9v0h54.9v0c4.5-0.1,6.9-2.3,6.9-6.9C300.9,304.4,298.5,302.2,294.1,302.1z
				 M311.2,264.4L311.2,264.4c-4.5,0.1-6.9,2.3-6.9,6.8V309c0,4.5,2.4,6.8,6.9,6.9v0c6.7-0.2,10.3-6.9,10.3-20.6v-17.1
				C321.5,269,317.9,264.6,311.2,264.4z M222.1,264.4L222.1,264.4c-6.7,0.2-10.3,4.6-10.3,13.7v17.1c0,13.6,3.6,20.3,10.3,20.6v0
				c4.5-0.1,6.9-2.3,6.9-6.9v-37.7C228.9,266.7,226.5,264.5,222.1,264.4z M311.2,261c0-11.4-6-16.9-17.1-17.1v0h-54.9v0
				c-11.2,0.2-17.1,5.8-17.1,17.1v0c6.7,0.1,10.3,3.5,10.3,10.3c0,6.8,3.6,10.2,10.3,10.3v0h48v0c6.7-0.1,10.3-3.5,10.3-10.3
				C300.9,264.4,304.5,261.1,311.2,261L311.2,261z"/>
		</g>
		<path id="XMLID_4_" fill="#444444" d="M335.3,315"/>
	</g>
</g>
</svg>
