<?xml version="1.0" encoding="iso-8859-1"?>
<!-- Generator: Adobe Illustrator 16.0.3, SVG Export Plug-In . SVG Version: 6.00 Build 0)  -->
<!DOCTYPE svg PUBLIC "-//W3C//DTD SVG 1.1//EN" "http://www.w3.org/Graphics/SVG/1.1/DTD/svg11.dtd">
<svg version="1.1" id="Layer_1" xmlns="http://www.w3.org/2000/svg" xmlns:xlink="http://www.w3.org/1999/xlink" x="0px" y="0px"
	 width="417.405px" height="107.706px" viewBox="0 0 417.405 107.706" style="enable-background:new 0 0 417.405 107.706;"
	 xml:space="preserve">
<rect x="-211.785" y="-243.832" style="fill:#444444;" width="841.89" height="595.28"/>
<g>
	<defs>
		<rect id="SVGID_1_" x="-211.785" y="-243.832" width="841.89" height="595.28"/>
	</defs>
	<clipPath id="SVGID_2_">
		<use xlink:href="#SVGID_1_"  style="overflow:visible;"/>
	</clipPath>
	<path style="clip-path:url(#SVGID_2_);fill:#FFFFFF;" d="M187.106,33.496c-11.214,0-16.476,7.621-16.476,19.343
		c0,11.322,5.262,19.162,16.476,19.162c11.177,0,16.44-7.84,16.44-19.162C203.546,41.117,198.283,33.496,187.106,33.496
		 M187.106,66.919c-7.258,0-9.69-5.808-9.69-14.153c0-9.036,2.432-14.117,9.69-14.117c7.149,0,9.689,5.081,9.689,14.117
		C196.795,61.112,194.364,66.919,187.106,66.919"/>
	<path style="clip-path:url(#SVGID_2_);fill:#FFFFFF;" d="M243.61,33.932h-6.714v29.54c-0.834,0.653-1.815,1.232-2.903,1.742
		c-1.852,0.868-4.427,1.705-7.476,1.705c-5.371,0-7.04-3.302-7.04-11.721V33.932h-6.679v21.52c0,11.359,3.738,16.548,12.158,16.548
		c4.102,0,7.288-1.209,9.508-2.468c1.301-0.737,2.432-1.561,3.375-2.467l0.907,4.681l4.863-0.399V33.932z"/>
	<path style="clip-path:url(#SVGID_2_);fill:#FFFFFF;" d="M253.154,52.982c0,14.225,8.057,19.121,16.04,19.016
		c3.085-0.041,5.729-0.453,7.585-0.98c1.084-0.307,2.069-0.616,2.94-1.016l0.58-4.827c-0.943,0.327-1.96,0.614-3.084,0.871
		c-1.889,0.433-4.465,0.828-7.223,0.871c-6.496,0.102-9.962-4.282-9.979-14.044c-0.02-10.125,3.484-14.263,9.979-14.263
		c2.759,0,5.298,0.476,7.186,0.908c1.124,0.258,2.141,0.58,3.085,0.907l-0.544-4.899c-0.871-0.399-1.857-0.706-2.977-1.017
		c-1.893-0.524-4.536-1.015-7.729-1.015C261.175,33.495,253.154,37.994,253.154,52.982"/>
	<path style="clip-path:url(#SVGID_2_);fill:#FFFFFF;" d="M288.974,72h6.714V43.149c1.742-0.58,6.313-3.883,10.813-3.883
		c4.355,0,6.714,2.468,6.714,12.339V72h6.715V51.096c0-12.192-3.267-16.947-11.723-16.947c-4.898,0-8.564,1.198-12.52,4.282V19.85
		l-6.714,0.654V72z"/>
	<path style="clip-path:url(#SVGID_2_);fill:#FFFFFF;" d="M363.623,24.097c-4.56-3.502-10.415-4.247-16.586-4.247h-14.95V72h16.584
		c18.146,0,22.464-10.742,22.464-27.145C371.135,33.496,368.136,27.563,363.623,24.097 M346.385,66.774h-7.331V25.112h9.871
		c12.012,0,15.403,6.533,15.387,20.033C364.292,61.875,360.539,66.774,346.385,66.774"/>
	<path style="clip-path:url(#SVGID_2_);fill:#FFFFFF;" d="M411.526,45.689c-1.71-0.974-3.665-1.524-5.88-1.705
		c2.759-0.291,9.29-2.794,9.29-10.452c0-9.871-4.898-13.682-18.398-13.682h-14.335V72h17.093c12.085,0,18.109-4.646,18.109-15.062
		C417.405,50.444,414.462,47.364,411.526,45.689 M388.771,25.113h6.859c9.11,0,12.793,1.524,12.774,8.129
		c-0.018,5.697-2.867,8.819-11.178,8.819h-8.456V25.113z M397.554,66.774h-8.782V46.669h8.674c9.291,0,13.5,2.178,13.5,10.198
		C410.945,65.25,406.409,66.774,397.554,66.774"/>
	<path style="clip-path:url(#SVGID_2_);fill:#FFFFFF;" d="M148.602,72c4.246,0,7.84-0.577,10.415-1.198
		c1.489-0.358,2.831-0.762,4.029-1.234l0.617-5.661c-1.271,0.473-2.655,0.888-4.138,1.307c-2.619,0.742-6.096,1.286-10.125,1.307
		c-9.653,0.051-14.353-6.206-14.407-21.846c-0.055-16.114,5.733-21.152,15.097-21.231c3.738-0.031,7.119,0.556,9.581,1.125
		c1.457,0.338,2.794,0.763,3.992,1.198l-0.581-5.625c-1.161-0.399-2.467-0.73-3.92-1.052C156.696,18.54,153.247,18,149.328,18
		c-12.375,0-21.544,6.605-21.52,26.746c0.012,10.415,2.322,17.383,6.06,21.593C137.606,70.548,142.759,72,148.602,72"/>
	<path style="clip-path:url(#SVGID_2_);fill:#777777;" d="M341.169,85.431c-2.085,0-4.107,0.948-5.697,2.601l-0.723-2.601
		l-2.663,0.207v21.323h3.819V90.467c0.476-0.351,0.992-0.679,1.548-0.949c0.973-0.473,2.313-0.971,3.881-0.971
		c0.661,0,1.054,0.083,1.28,0.146l0.289,0.144l0.454-2.952c-0.206-0.082-0.434-0.164-0.681-0.227
		C342.264,85.555,341.727,85.431,341.169,85.431"/>
	<path style="clip-path:url(#SVGID_2_);fill:#777777;" d="M363.278,92.78c-0.09-3.778-2.663-7.38-7.865-7.349
		c-5.243,0.03-9.228,3.323-9.228,11.188c0,7.122,3.365,10.714,10.033,10.714c1.672,0,3.097-0.246,4.148-0.496
		c0.6-0.142,1.156-0.309,1.652-0.495l0.392-2.766c-0.557,0.165-1.156,0.304-1.796,0.433c-1.095,0.223-2.56,0.415-4.129,0.434
		c-3.819,0.044-6.357-1.775-6.357-6.978v-0.742h12.819c0.082-0.269,0.135-0.931,0.206-1.652
		C363.228,94.327,363.292,93.358,363.278,92.78 M359.976,93.895c-0.015,0.125-0.021,0.289-0.021,0.516h-9.764
		c0.165-2.478,0.846-3.922,1.817-4.851c0.97-0.93,2.188-1.302,3.487-1.302c2.54,0,4.403,1.486,4.501,4.996
		C360.001,93.441,360.002,93.667,359.976,93.895"/>
	<polygon style="clip-path:url(#SVGID_2_);fill:#777777;" points="368.542,107.333 372.341,107.333 372.341,77.668 368.542,78.041 	
		"/>
	<path style="clip-path:url(#SVGID_2_);fill:#777777;" d="M394.76,104.732c-0.351-0.146-0.455-0.659-0.455-1.65V94.72
		c0-6.688-1.589-9.124-8.277-9.124c-2.064,0-3.693,0.335-4.852,0.66c-0.68,0.191-1.28,0.413-1.796,0.64l-0.413,2.87
		c0.661-0.248,1.362-0.457,2.127-0.64c1.3-0.313,2.932-0.619,4.645-0.619c3.529,0,4.769,0.68,4.769,5.078v2.332l-1.135-0.165
		c-0.718-0.104-1.652-0.145-2.622-0.145c-4.789,0-9.455,1.115-9.455,6.049c0,3.736,2.539,6.084,6.296,6.049
		c2.746-0.027,4.52-0.664,5.657-1.383c0.658-0.417,1.176-0.889,1.548-1.404c0,0.33,0.228,1.218,0.723,1.774
		c0.495,0.558,1.26,1.013,2.395,1.013c0.661,0,1.242-0.071,1.651-0.187l0.66-0.186l0.27-2.52
		C395.916,104.814,395.152,104.895,394.76,104.732 M390.507,103.123c-0.475,0.351-1.015,0.633-1.61,0.908
		c-1.015,0.468-2.457,0.888-4.19,0.888c-2.498,0-3.922-0.991-3.922-3.117c0-3.613,4.149-3.89,6.585-3.819l2.126,0.063l1.012,0.061
		V103.123z"/>
	<polygon style="clip-path:url(#SVGID_2_);fill:#777777;" points="398.991,107.333 403.224,107.333 408.198,99.035 413.133,107.333 
		417.405,107.333 410.305,96.744 417.405,86.05 413.359,86.05 408.198,94.596 402.996,86.05 398.991,86.05 406.052,96.744 	"/>
	<path style="clip-path:url(#SVGID_2_);fill:#E42528;" d="M89.143,48c0,4.547-2.395,6.775-6.857,6.854v0.003H27.429v-0.003
		c-4.462-0.079-6.857-2.307-6.857-6.854c0-4.546,2.395-6.775,6.857-6.853v-0.004h54.857v0.004
		C86.748,41.225,89.143,43.454,89.143,48 M82.286,58.29v-0.004H27.429v0.004c-4.462,0.078-6.857,2.307-6.857,6.854
		s2.395,6.774,6.857,6.853V72h54.857v-0.004c4.462-0.078,6.857-2.306,6.857-6.853S86.748,58.368,82.286,58.29 M99.429,20.579v-0.004
		c-4.462,0.079-6.857,2.307-6.857,6.854v37.714c0,4.547,2.395,6.774,6.857,6.853v-0.007c6.693-0.235,10.286-6.92,10.286-20.56
		V34.286C109.715,25.193,106.122,20.737,99.429,20.579 M10.286,20.575v0.004C3.593,20.737,0,25.193,0,34.286v17.143
		c0,13.64,3.593,20.324,10.286,20.56v0.007c4.462-0.078,6.857-2.306,6.857-6.853V27.429C17.143,22.882,14.748,20.654,10.286,20.575
		 M99.429,17.143c0-11.367-5.988-16.937-17.143-17.134V0H27.429v0.009C16.275,0.206,10.286,5.776,10.286,17.143v0.006
		c6.693,0.118,10.286,3.46,10.286,10.28c0,6.82,3.593,10.162,10.286,10.28v0.005h48v-0.005c6.692-0.118,10.285-3.46,10.285-10.28
		c0-6.82,3.593-10.162,10.286-10.28V17.143z"/>
</g>
</svg>
