<?xml version="1.0" encoding="iso-8859-1"?>
<!-- Generator: Adobe Illustrator 16.0.3, SVG Export Plug-In . SVG Version: 6.00 Build 0)  -->
<!DOCTYPE svg PUBLIC "-//W3C//DTD SVG 1.1//EN" "http://www.w3.org/Graphics/SVG/1.1/DTD/svg11.dtd">
<svg version="1.1" id="Layer_1" xmlns="http://www.w3.org/2000/svg" xmlns:xlink="http://www.w3.org/1999/xlink" x="0px" y="0px"
	 width="109.714px" height="72px" viewBox="0 0 109.714 72" style="enable-background:new 0 0 109.714 72;" xml:space="preserve">
<g>
	<defs>
		<rect id="SVGID_1_" width="109.714" height="72"/>
	</defs>
	<clipPath id="SVGID_2_">
		<use xlink:href="#SVGID_1_"  style="overflow:visible;"/>
	</clipPath>
	<path style="clip-path:url(#SVGID_2_);fill:#E42528;" d="M89.143,48c0,4.547-2.395,6.774-6.857,6.854v0.003H27.429v-0.003
		c-4.462-0.079-6.857-2.307-6.857-6.854c0-4.546,2.395-6.774,6.857-6.854v-0.004h54.856v0.004
		C86.748,41.226,89.143,43.454,89.143,48 M82.285,58.29v-0.004H27.429v0.004c-4.462,0.078-6.857,2.306-6.857,6.853
		s2.395,6.775,6.857,6.854V72h54.856v-0.004c4.463-0.078,6.857-2.307,6.857-6.854S86.748,58.368,82.285,58.29 M99.429,20.579v-0.004
		c-4.462,0.079-6.857,2.307-6.857,6.854v37.714c0,4.547,2.396,6.775,6.857,6.854v-0.007c6.693-0.236,10.286-6.92,10.286-20.561
		V34.286C109.715,25.193,106.122,20.737,99.429,20.579 M10.286,20.575v0.004C3.594,20.737,0,25.193,0,34.286v17.143
		c0,13.641,3.594,20.324,10.286,20.561v0.007c4.462-0.078,6.857-2.307,6.857-6.854V27.429
		C17.143,22.882,14.748,20.654,10.286,20.575 M99.429,17.143c0-11.367-5.988-16.937-17.144-17.133V0H27.429v0.01
		C16.274,0.206,10.286,5.776,10.286,17.143v0.006c6.693,0.118,10.286,3.46,10.286,10.28c0,6.82,3.593,10.162,10.286,10.28v0.005h48
		v-0.005c6.692-0.118,10.285-3.46,10.285-10.28c0-6.82,3.593-10.162,10.286-10.28V17.143z"/>
</g>
</svg>
