<?xml version="1.0" encoding="iso-8859-1"?>
<!-- Generator: Adobe Illustrator 16.0.3, SVG Export Plug-In . SVG Version: 6.00 Build 0)  -->
<!DOCTYPE svg PUBLIC "-//W3C//DTD SVG 1.1//EN" "http://www.w3.org/Graphics/SVG/1.1/DTD/svg11.dtd">
<svg version="1.1" id="Layer_1" xmlns="http://www.w3.org/2000/svg" xmlns:xlink="http://www.w3.org/1999/xlink" x="0px" y="0px"
	 width="289.598px" height="293.201px" viewBox="0 0 289.598 293.201" style="enable-background:new 0 0 289.598 293.201;"
	 xml:space="preserve">
<g>
	<defs>
		<rect id="SVGID_1_" x="-275.786" y="-151.084" width="841.89" height="595.28"/>
	</defs>
	<clipPath id="SVGID_2_">
		<use xlink:href="#SVGID_1_"  style="overflow:visible;"/>
	</clipPath>
	<path style="clip-path:url(#SVGID_2_);fill:#444444;" d="M59.298,218.992c-11.214,0-16.476,7.621-16.476,19.343
		c0,11.322,5.262,19.161,16.476,19.161c11.177,0,16.44-7.839,16.44-19.161C75.738,226.613,70.475,218.992,59.298,218.992
		 M59.298,252.415c-7.258,0-9.69-5.808-9.69-14.153c0-9.036,2.432-14.117,9.69-14.117c7.149,0,9.689,5.081,9.689,14.117
		C68.987,246.607,66.556,252.415,59.298,252.415"/>
	<path style="clip-path:url(#SVGID_2_);fill:#444444;" d="M115.802,219.428h-6.714v29.54c-0.834,0.652-1.815,1.231-2.903,1.742
		c-1.852,0.867-4.427,1.704-7.476,1.704c-5.371,0-7.04-3.302-7.04-11.721v-21.266h-6.678v21.52c0,11.359,3.738,16.548,12.158,16.548
		c4.101,0,7.288-1.209,9.508-2.468c1.3-0.737,2.431-1.56,3.375-2.467l0.907,4.681l4.863-0.398V219.428z"/>
	<path style="clip-path:url(#SVGID_2_);fill:#444444;" d="M125.347,238.479c0,14.225,8.056,19.121,16.04,19.016
		c3.085-0.041,5.729-0.453,7.585-0.979c1.084-0.308,2.069-0.617,2.94-1.017l0.579-4.827c-0.942,0.327-1.96,0.614-3.084,0.871
		c-1.888,0.434-4.464,0.828-7.222,0.871c-6.497,0.103-9.962-4.282-9.98-14.044c-0.019-10.125,3.484-14.263,9.98-14.263
		c2.758,0,5.297,0.476,7.186,0.908c1.124,0.258,2.141,0.58,3.085,0.906l-0.544-4.898c-0.871-0.399-1.857-0.706-2.977-1.018
		c-1.893-0.523-4.537-1.015-7.73-1.015C133.367,218.99,125.347,223.489,125.347,238.479"/>
	<path style="clip-path:url(#SVGID_2_);fill:#444444;" d="M161.165,257.496h6.714v-28.852c1.742-0.58,6.314-3.883,10.814-3.883
		c4.354,0,6.714,2.468,6.714,12.339v20.396h6.714v-20.904c0-12.192-3.266-16.947-11.722-16.947c-4.899,0-8.565,1.198-12.521,4.282
		v-18.581L161.165,206V257.496z"/>
	<path style="clip-path:url(#SVGID_2_);fill:#444444;" d="M235.814,209.593c-4.559-3.502-10.415-4.247-16.585-4.247h-14.951v52.15
		h16.584c18.146,0,22.465-10.742,22.465-27.146C243.327,218.992,240.327,213.059,235.814,209.593 M218.577,252.27h-7.331v-41.661
		h9.87c12.013,0,15.404,6.532,15.388,20.032C236.483,247.371,232.73,252.27,218.577,252.27"/>
	<path style="clip-path:url(#SVGID_2_);fill:#444444;" d="M283.719,231.185c-1.709-0.974-3.665-1.523-5.879-1.704
		c2.758-0.291,9.29-2.795,9.29-10.452c0-9.871-4.899-13.683-18.399-13.683h-14.335v52.15h17.093
		c12.085,0,18.109-4.646,18.109-15.062C289.598,235.94,286.654,232.86,283.719,231.185 M260.965,210.609h6.858
		c9.11,0,12.793,1.523,12.774,8.129c-0.017,5.696-2.867,8.818-11.178,8.818h-8.455V210.609z M269.747,252.27h-8.782v-20.104h8.673
		c9.291,0,13.5,2.178,13.5,10.198C283.138,250.746,278.602,252.27,269.747,252.27"/>
	<path style="clip-path:url(#SVGID_2_);fill:#444444;" d="M20.794,257.496c4.246,0,7.84-0.577,10.415-1.198
		c1.489-0.358,2.831-0.762,4.029-1.234l0.617-5.66c-1.271,0.472-2.655,0.887-4.138,1.306c-2.619,0.742-6.096,1.286-10.125,1.307
		c-9.653,0.052-14.353-6.206-14.407-21.846c-0.055-16.114,5.733-21.152,15.097-21.231c3.738-0.03,7.119,0.557,9.581,1.125
		c1.457,0.339,2.794,0.764,3.992,1.198l-0.581-5.625c-1.161-0.398-2.467-0.729-3.92-1.052c-2.466-0.549-5.915-1.089-9.834-1.089
		c-12.375,0-21.544,6.604-21.52,26.746c0.012,10.415,2.322,17.383,6.06,21.593C9.798,256.044,14.951,257.496,20.794,257.496"/>
	<path style="clip-path:url(#SVGID_2_);fill:#777777;" d="M213.361,270.927c-2.085,0-4.108,0.949-5.698,2.601l-0.722-2.601
		l-2.663,0.207v21.324h3.819v-16.494c0.475-0.352,0.991-0.68,1.548-0.95c0.972-0.472,2.312-0.97,3.881-0.97
		c0.661,0,1.053,0.083,1.28,0.145l0.289,0.145l0.454-2.952c-0.206-0.082-0.434-0.165-0.682-0.228
		C214.455,271.051,213.918,270.927,213.361,270.927"/>
	<path style="clip-path:url(#SVGID_2_);fill:#777777;" d="M235.471,278.275c-0.09-3.777-2.663-7.38-7.865-7.349
		c-5.244,0.031-9.228,3.324-9.228,11.188c0,7.122,3.364,10.715,10.032,10.715c1.672,0,3.098-0.246,4.149-0.496
		c0.599-0.143,1.156-0.31,1.652-0.495l0.392-2.767c-0.557,0.165-1.157,0.305-1.796,0.434c-1.095,0.222-2.561,0.415-4.129,0.433
		c-3.819,0.044-6.358-1.774-6.358-6.977v-0.743h12.82c0.082-0.269,0.135-0.93,0.206-1.652
		C235.42,279.822,235.484,278.854,235.471,278.275 M232.167,279.391c-0.015,0.125-0.021,0.289-0.021,0.516h-9.764
		c0.165-2.478,0.846-3.922,1.816-4.851s2.188-1.301,3.488-1.301c2.54,0,4.403,1.485,4.501,4.996
		C232.193,278.937,232.194,279.164,232.167,279.391"/>
	<polygon style="clip-path:url(#SVGID_2_);fill:#777777;" points="240.734,292.829 244.532,292.829 244.532,263.164 
		240.734,263.536 	"/>
	<path style="clip-path:url(#SVGID_2_);fill:#777777;" d="M266.952,290.229c-0.352-0.146-0.455-0.661-0.455-1.651v-8.361
		c0-6.688-1.589-9.125-8.278-9.125c-2.063,0-3.692,0.336-4.851,0.661c-0.68,0.191-1.28,0.413-1.796,0.641l-0.413,2.87
		c0.661-0.248,1.362-0.457,2.127-0.641c1.3-0.313,2.931-0.619,4.644-0.619c3.53,0,4.77,0.681,4.77,5.078v2.332l-1.135-0.165
		c-0.719-0.104-1.652-0.144-2.622-0.144c-4.789,0-9.455,1.114-9.455,6.048c0,3.737,2.539,6.084,6.296,6.049
		c2.746-0.027,4.519-0.664,5.657-1.384c0.657-0.416,1.176-0.887,1.548-1.403c0,0.33,0.227,1.218,0.723,1.775
		c0.495,0.557,1.259,1.012,2.395,1.012c0.66,0,1.241-0.071,1.651-0.186l0.66-0.187l0.27-2.519
		C268.108,290.311,267.344,290.392,266.952,290.229 M262.699,288.618c-0.476,0.351-1.015,0.633-1.61,0.908
		c-1.015,0.468-2.457,0.888-4.19,0.888c-2.498,0-3.923-0.991-3.923-3.117c0-3.612,4.15-3.89,6.586-3.818l2.126,0.062l1.012,0.062
		V288.618z"/>
	<polygon style="clip-path:url(#SVGID_2_);fill:#777777;" points="271.184,292.829 275.415,292.829 280.391,284.53 285.324,292.829 
		289.598,292.829 282.496,282.239 289.598,271.546 285.552,271.546 280.391,280.093 275.188,271.546 271.184,271.546 
		278.243,282.239 	"/>
	<path style="clip-path:url(#SVGID_2_);fill:#E42528;" d="M235.298,126.699c0,12.001-6.323,17.882-18.1,18.09v0.01H72.399v-0.01
		c-11.777-0.208-18.1-6.089-18.1-18.09s6.323-17.882,18.1-18.09v-0.01h144.799v0.01
		C228.975,108.817,235.298,114.698,235.298,126.699 M217.198,153.858v-0.01H72.399v0.01c-11.777,0.208-18.1,6.09-18.1,18.091
		s6.323,17.882,18.1,18.09v0.01h144.799v-0.01c11.776-0.208,18.1-6.089,18.1-18.09S228.975,154.066,217.198,153.858 M262.448,54.32
		v-0.01c-11.777,0.208-18.101,6.089-18.101,18.09v99.549c0,12.001,6.323,17.882,18.101,18.09v-0.021
		c17.665-0.623,27.149-18.266,27.149-54.27V90.5C289.598,66.498,280.113,54.736,262.448,54.32 M27.15,54.31v0.01
		C9.484,54.736,0,66.497,0,90.5v45.249c0,36.004,9.484,53.646,27.15,54.27v0.021c11.777-0.208,18.099-6.089,18.099-18.09V72.4
		C45.249,60.399,38.927,54.518,27.15,54.31 M262.448,45.25c0-30.003-15.808-44.705-45.25-45.225V0H72.399v0.025
		C42.957,0.545,27.15,15.247,27.15,45.25v0.015c17.665,0.312,27.149,9.133,27.149,27.135c0,18.001,9.485,26.823,27.15,27.135v0.015
		h126.699v-0.015c17.666-0.312,27.15-9.134,27.15-27.135c0-18.002,9.484-26.823,27.15-27.135V45.25z"/>
</g>
</svg>
