<?xml version="1.0" encoding="utf-8"?>
<!-- Generator: Adobe Illustrator 17.1.0, SVG Export Plug-In . SVG Version: 6.00 Build 0)  -->
<!DOCTYPE svg PUBLIC "-//W3C//DTD SVG 1.1//EN" "http://www.w3.org/Graphics/SVG/1.1/DTD/svg11.dtd">
<svg version="1.1" id="Layer_1" xmlns="http://www.w3.org/2000/svg" xmlns:xlink="http://www.w3.org/1999/xlink" x="0px" y="0px"
	 viewBox="0 0 158.5 104" enable-background="new 0 0 158.5 104" xml:space="preserve">
<g id="XMLID_3_">
	<g id="XMLID_4_">
		<path id="XMLID_5_" d="M128.8,69.4c0,6.6-3.5,9.8-9.9,9.9v0H39.6v0c-6.4-0.1-9.9-3.3-9.9-9.9c0-6.6,3.5-9.8,9.9-9.9v0h79.3v0
			C125.4,59.6,128.8,62.8,128.8,69.4z M118.9,84.2L118.9,84.2l-79.3,0v0c-6.4,0.1-9.9,3.3-9.9,9.9c0,6.6,3.5,9.8,9.9,9.9v0h79.3v0
			c6.4-0.1,9.9-3.3,9.9-9.9C128.8,87.6,125.4,84.3,118.9,84.2z M143.7,29.7L143.7,29.7c-6.4,0.1-9.9,3.3-9.9,9.9v54.5
			c0,6.6,3.5,9.8,9.9,9.9v0c9.7-0.3,14.9-10,14.9-29.7V49.5C158.5,36.4,153.3,30,143.7,29.7z M14.9,29.7L14.9,29.7
			C5.2,30,0,36.4,0,49.5v24.8C0,94,5.2,103.7,14.9,104v0c6.4-0.1,9.9-3.3,9.9-9.9V39.6C24.8,33.1,21.3,29.8,14.9,29.7z M143.7,24.8
			c0-16.4-8.7-24.5-24.8-24.8v0H39.6v0C23.5,0.3,14.9,8.3,14.9,24.8v0c9.7,0.2,14.9,5,14.9,14.9c0,9.9,5.2,14.7,14.9,14.9v0l69.4,0
			v0c9.7-0.2,14.9-5,14.9-14.9C128.8,29.8,134,25,143.7,24.8L143.7,24.8z"/>
	</g>
</g>
</svg>
